Coordinates
version=1
nRows=31
nColumns=33
inDegrees=yes

Units are S.I. units (second, meters, Newtons, ...)
Angles are in degrees.

endheader
time	ground_thorax_rot_x	ground_thorax_rot_y	ground_thorax_rot_z	ground_thorax_tx	ground_thorax_ty	ground_thorax_tz	clav_prot_r	clav_elev_r	scapula_abduction_r	scapula_elevation_r	scapula_upward_rot_r	scapula_winging_r	shoulder_elv_r	plane_of_elev_r	axial_rot_r	elbow_flexion_r	pro_sup_r	wrist_flex_r	wrist_dev_r	clav_prot_l	clav_elev_l	scapula_abduction_l	scapula_elevation_l	scapula_upward_rot_l	scapula_winging_l	shoulder_elv_l	plane_of_elev_l	axial_rot_l	elbow_flexion_l	pro_sup_l	wrist_flex_l	wrist_dev_l	
7.2100	-38.933476	-8.423732	14.587278	-248.398177	850.519266	3.501338	5.980920	-45.000000	37.379387	-45.000000	-35.191420	2776.664009	-466.454586	145.972768	-119.842282	1814.896695	45.578765	18.081126	1.593571	14.823070	37.140750	-37.471581	-45.000000	-45.000000	-3873.534661	73.993254	22.951132	-44.660354	1822.478762	141.122437	-1.042315	-9.709158	
7.2200	-38.916787	-8.537552	14.677693	-248.209766	850.073768	3.465361	6.028007	-45.000000	37.366958	-45.000000	-35.313674	2776.727451	-466.529061	146.003525	-119.759134	1814.855205	45.431970	18.009531	1.683419	14.759247	37.149556	-37.420808	-45.000000	-45.000000	-3873.590601	73.963349	22.915728	-44.668694	1822.435045	141.178345	-1.036821	-9.763978	
7.2300	-38.902712	-8.641533	14.763513	-247.993892	849.631294	3.431204	6.088760	-45.000000	37.335953	-45.000000	-35.438734	2776.791709	-466.576387	146.030228	-119.655963	1814.877207	45.265673	17.897249	1.835363	14.659776	37.248252	-37.350840	-45.000000	-45.000000	-3873.653807	73.981254	22.877924	-44.675979	1822.463282	141.235785	-1.074974	-9.838254	
7.2400	-38.889910	-8.717470	14.825839	-247.718584	849.194294	3.400161	6.120642	-45.000000	37.322824	-45.000000	-35.497224	2776.841188	-466.629068	146.052003	-119.596668	1814.879794	45.076313	17.859664	1.928377	14.620491	37.292431	-37.317470	-45.000000	-45.000000	-3873.704193	73.976166	22.852443	-44.688103	1822.479260	141.287193	-1.075647	-9.872451	
7.2500	-38.877373	-8.775228	14.873270	-247.381430	848.766321	3.373074	6.139052	-45.000000	37.321644	-45.000000	-35.512124	2776.881275	-466.679520	146.067922	-119.558606	1814.882507	44.859383	17.857100	1.996937	14.609799	37.299393	-37.300604	-45.000000	-45.000000	-3873.739834	73.960778	22.847392	-44.690494	1822.500703	141.335996	-1.062249	-9.887076	
7.2600	-38.864270	-8.813627	14.912047	-246.976376	848.351126	3.350742	6.147551	-45.000000	37.326398	-45.000000	-35.480350	2776.916229	-466.724156	146.085096	-119.539282	1814.886439	44.612130	17.878919	2.063731	14.613991	37.320499	-37.300041	-45.000000	-45.000000	-3873.779691	73.952932	22.844617	-44.685375	1822.531037	141.380925	-1.047371	-9.890222	
7.2700	-38.849200	-8.844462	14.945897	-246.505973	847.952435	3.333590	6.151054	-45.000000	37.348921	-45.000000	-35.415053	2776.945958	-466.767700	146.100229	-119.531218	1814.882328	44.335208	17.919441	2.117109	14.629639	37.300438	-37.305502	-45.000000	-45.000000	-3873.809395	73.936973	22.863469	-44.656688	1822.555503	141.424599	-1.024963	-9.884031	
7.2800	-38.833290	-8.868095	14.981871	-245.976321	847.572826	3.321712	6.158505	-45.000000	37.373439	-45.000000	-35.320142	2776.979326	-466.806175	146.119916	-119.527309	1814.876060	44.030428	17.957308	2.192369	14.632539	37.324818	-37.318847	-45.000000	-45.000000	-3873.856998	73.939920	22.867130	-44.614830	1822.582948	141.466314	-1.017825	-9.883889	
7.2900	-38.815139	-8.891442	15.016911	-245.393145	847.213525	3.314973	6.167048	-45.000000	37.414958	-45.000000	-35.202965	2777.008573	-466.846828	146.137279	-119.528757	1814.857820	43.697286	18.005372	2.256911	14.634771	37.306354	-37.329611	-45.000000	-45.000000	-3873.898946	73.934080	22.890846	-44.546640	1822.595707	141.510503	-1.005061	-9.879444	
7.3000	-38.796497	-8.914963	15.053854	-244.760718	846.873899	3.313147	6.182975	-45.000000	37.460626	-45.000000	-35.060866	2777.037414	-466.882082	146.156767	-119.533118	1814.841869	43.332371	18.055664	2.336066	14.621054	37.325216	-37.334847	-45.000000	-45.000000	-3873.959557	73.949779	22.902139	-44.464935	1822.613807	141.559494	-1.004555	-9.877743	
7.3100	-38.777062	-8.946080	15.090149	-244.081408	846.551993	3.315972	6.206159	-45.000000	37.525696	-45.000000	-34.905578	2777.058855	-466.915190	146.171600	-119.537338	1814.823928	42.930646	18.113647	2.406385	14.599170	37.301668	-37.326315	-45.000000	-45.000000	-3874.012391	73.964024	22.934811	-44.356514	1822.629505	141.622029	-1.000658	-9.871173	
7.3200	-38.760300	-8.977862	15.124661	-243.354810	846.244341	3.323120	6.236711	-45.000000	37.588116	-45.000000	-34.729144	2777.080102	-466.944556	146.184345	-119.542607	1814.801610	42.485926	18.174918	2.486089	14.566490	37.306812	-37.327974	-45.000000	-44.999999	-3874.075019	73.986969	22.950941	-44.238017	1822.649958	141.702713	-1.006633	-9.865907	
7.3300	-38.744811	-9.013187	15.157078	-242.577857	845.946110	3.334137	6.270088	-45.000000	37.660146	-45.000000	-34.543388	2777.095963	-466.972331	146.193364	-119.544722	1814.771805	41.990899	18.241669	2.561290	14.532003	37.279651	-37.334187	-45.000000	-44.999999	-3874.129412	74.000192	22.981880	-44.101579	1822.668004	141.811517	-1.010274	-9.856515	
7.3400	-38.732931	-9.052818	15.187350	-241.744971	845.650932	3.348436	6.305008	-45.000000	37.731104	-45.000000	-34.342681	2777.114604	-466.997651	146.203925	-119.544782	1814.738397	41.441638	18.313711	2.645016	14.498653	37.275652	-37.351643	-45.000000	-44.999998	-3874.189571	74.018358	23.001174	-43.960764	1822.689544	141.953546	-1.021668	-9.847101	
7.3500	-38.725732	-9.089490	15.210066	-240.848925	845.351098	3.365366	6.338557	-45.000000	37.803856	-45.000000	-34.133363	2777.137696	-467.028239	146.212212	-119.539738	1814.687670	40.832831	18.388246	2.732237	14.469321	37.257261	-37.388916	-45.000000	-44.999996	-3874.244739	74.025935	23.025702	-43.811066	1822.704273	142.137883	-1.034294	-9.836502	
7.3600	-38.722606	-9.125818	15.229944	-239.881891	845.037773	3.384344	6.369300	-45.000000	37.872423	-45.000000	-33.912388	2777.167575	-467.063741	146.223465	-119.531756	1814.628078	40.161805	18.466785	2.830827	14.444335	37.259790	-37.448578	-45.000000	-44.999993	-3874.307499	74.031165	23.034680	-43.659887	1822.719013	142.367823	-1.054566	-9.826288	
7.3700	-38.730409	-9.144153	15.235191	-238.836481	844.701538	3.404985	6.385338	-45.000000	37.927209	-45.000000	-33.678439	2777.210962	-467.112853	146.232875	-119.518128	1814.549405	39.416788	18.547304	2.939087	14.438197	37.261170	-37.537287	-45.000000	-44.999987	-3874.360849	74.025410	23.059765	-43.506617	1822.726462	142.651593	-1.077957	-9.815928	
7.3800	-38.742044	-9.170868	15.243550	-237.706589	844.333009	3.427133	6.394262	-45.000000	37.982844	-45.000000	-33.436445	2777.261797	-467.169379	146.247028	-119.500830	1814.470571	38.595859	18.633172	3.060051	14.439090	37.269946	-37.626015	-45.000000	-44.999977	-3874.418589	74.023841	23.087172	-43.347047	1822.737822	142.990240	-1.106030	-9.803281	
7.3900	-38.766735	-9.173900	15.234141	-236.487217	843.923289	3.450782	6.380822	-45.000000	38.012878	-45.000000	-33.176879	2777.331456	-467.240442	146.257114	-119.482631	1814.371393	37.684474	18.719960	3.194793	14.471088	37.285032	-37.745796	-45.000000	-44.999959	-3874.460894	74.005119	23.142478	-43.186858	1822.741138	143.389293	-1.138033	-9.791576	
7.4000	-38.796462	-9.174099	15.222628	-235.174766	843.464601	3.475882	6.342228	-45.000000	38.035726	-45.000000	-32.904161	2777.413191	-467.314510	146.272880	-119.465272	1814.273409	36.671233	18.813067	3.345550	14.536917	37.312138	-37.874615	-45.000000	-44.999927	-3874.492978	73.973124	23.222425	-43.023034	1822.744810	143.850568	-1.171997	-9.777496	
7.4100	-38.838942	-9.152121	15.193815	-233.766386	842.950510	3.502157	6.261127	-45.000000	38.033479	-45.000000	-32.604219	2777.519029	-467.394744	146.292159	-119.448633	1814.163270	35.530998	18.911215	3.517109	14.662451	37.361280	-38.035219	-45.000000	-44.999868	-3874.498936	73.914439	23.340422	-42.863016	1822.739923	144.381302	-1.207502	-9.763111	
7.4200	-38.877396	-9.149519	15.178204	-232.259713	842.376034	3.528997	6.173450	-45.000000	38.045950	-45.000000	-32.297340	2777.628112	-467.475404	146.319612	-119.431488	1814.059537	34.271579	19.015420	3.709143	14.798773	37.413019	-38.181754	-45.000000	-44.999764	-3874.508655	73.851726	23.469478	-42.694278	1822.739232	144.974668	-1.243720	-9.744489	
7.4300	-38.915721	-9.149243	15.166312	-230.652322	841.737402	3.555494	6.078912	-45.000000	38.055511	-45.000000	-31.976333	2777.746121	-467.563687	146.349501	-119.416104	1813.943040	32.899336	19.119795	3.924837	14.947059	37.469769	-38.338450	-45.000000	-44.999578	-3874.520664	73.774685	23.605162	-42.518798	1822.734384	145.623631	-1.282923	-9.725285	
7.4400	-38.943311	-9.177837	15.180220	-228.942117	841.031907	3.580589	6.003844	-45.000000	38.090100	-45.000000	-31.658124	2777.856751	-467.657817	146.385140	-119.400030	1813.829402	31.445100	19.222930	4.161728	15.069108	37.515180	-38.473723	-45.000000	-44.999244	-3874.559296	73.704900	23.727422	-42.327789	1822.736029	146.310548	-1.326218	-9.703550	
7.4500	-38.966493	-9.222794	15.211116	-227.127006	840.257418	3.603318	5.929620	-45.000000	38.132153	-45.000000	-31.327621	2777.969843	-467.759613	146.429243	-119.380280	1813.714357	29.925406	19.322379	4.421922	15.185054	37.561322	-38.609068	-45.000000	-44.998646	-3874.617689	73.635804	23.832560	-42.127199	1822.741052	147.024461	-1.375617	-9.681176	
7.4600	-38.978280	-9.298411	15.269201	-225.205324	839.411982	3.622934	5.878111	-45.000000	38.195715	-45.000000	-30.995397	2778.075601	-467.869780	146.478516	-119.349474	1813.603177	28.376175	19.413050	4.700547	15.264139	37.594601	-38.724090	-45.000000	-44.997575	-3874.712736	73.581907	23.910112	-41.913303	1822.753979	147.748631	-1.432631	-9.658552	
7.4700	-38.985081	-9.388939	15.341630	-223.175927	838.493426	3.638910	5.832884	-45.000000	38.263205	-45.000000	-30.653164	2778.184722	-467.990031	146.532097	-119.307511	1813.491400	26.820252	19.491223	4.994122	15.328882	37.625933	-38.835927	-45.000000	-44.995653	-3874.829898	73.531265	23.974471	-41.695749	1822.765195	148.473974	-1.498233	-9.639674	
7.4800	-38.989129	-9.488058	15.423657	-221.038588	837.499049	3.650806	5.800955	-45.000000	38.332434	-45.000000	-30.309296	2778.296951	-468.124891	146.584439	-119.250489	1813.377236	25.283725	19.552388	5.296758	15.373241	37.649831	-38.943158	-45.000000	-44.992222	-3874.963325	73.484302	24.039533	-41.483095	1822.771120	149.191856	-1.571074	-9.626318	
7.4900	-38.988497	-9.603169	15.522129	-218.793569	836.425650	3.658279	5.791474	-45.000000	38.401019	-45.000000	-29.966842	2778.409856	-468.275099	146.633403	-119.180720	1813.258437	23.789718	19.592924	5.601897	15.377791	37.664612	-39.042738	-45.000000	-44.986042	-3875.121238	73.447154	24.092553	-41.285470	1822.769823	149.895215	-1.654178	-9.621165	
7.5000	-38.982231	-9.738980	15.639481	-216.441028	835.269369	3.661111	5.807297	-45.000000	38.467812	-45.000000	-29.644669	2778.525385	-468.440445	146.675362	-119.095955	1813.136683	22.365927	19.611030	5.907179	15.341931	37.663646	-39.122398	-45.000000	-44.975068	-3875.307663	73.425016	24.135866	-41.100649	1822.761423	150.575028	-1.746875	-9.624778	
7.5100	-38.975354	-9.882745	15.760643	-213.980849	834.026295	3.659443	5.827098	-45.000000	38.529354	-45.000000	-29.326103	2778.648540	-468.622921	146.714884	-119.007612	1813.018051	21.020868	19.609860	6.214179	15.302601	37.661997	-39.201236	-45.000000	-44.955141	-3875.501129	73.395740	24.181375	-40.931904	1822.743455	151.227176	-1.846082	-9.636761	
